<?xml version="1.0" encoding="UTF-8"?>
<svg id="Camada_2" data-name="Camada 2" xmlns="http://www.w3.org/2000/svg" viewBox="0 0 76.87 70.57">
  <defs>
    <style>
      .cls-1 {
        fill: none;
        stroke: #fff;
        stroke-miterlimit: 10;
      }
    </style>
  </defs>
  <g id="Camada_1-2" data-name="Camada 1">
    <path class="cls-1" d="M76.36,40.27c-.59,10.98-6.87,20.04-16.7,24.91-15.93,7.91-39.78,6.7-52.23-7.2C.3,50.01-1.69,38.61,3.17,28.94c5.79-11.55,18.71-17.21,31.11-18.4l.07-4.78c.07-4.73,7.74-7.04,12.17-3.66l16.02,12.24c2.74,2.1,2.69,5.46-.11,7.52l-16.35,11.99c-4.52,3.31-12.13.88-12.06-3.85l.1-7.34c-10.33,1.47-23.43,7.53-21.61,19.43,1.13,7.39,7.62,12.07,14.33,14.16,12.86,4.02,36.58,1.38,37.52-15.98.42-7.7,12.42-7.72,12,0Z"/>
  </g>
</svg>